<svg width="22" height="22" viewBox="0 0 64 64" xmlns="http://www.w3.org/2000/svg"><path d="M61 6.167H3c-1.65 0-3 1.35-3 3v45.667c0 1.65 1.35 3 3 3h58c1.65 0 3-1.35 3-3V9.167c0-1.65-1.35-3-3-3zm-35.747 6.875h31.863v5.322H21.777l3.476-5.322zm11.973 17.471v-3.869l13.851 5.99v3.304L37.226 41.97v-3.897l9.666-3.8-9.666-3.76zm-1.281-6.789l-5.053 20.874h-2.849l4.997-20.874h2.905zm-9.184 14.334v3.897l-13.838-6.018v-3.332l13.838-5.99v3.925l-9.652 3.69 9.652 3.828zM17.27 13.985a1.647 1.647 0 11-1.648 1.646 1.646 1.646 0 011.648-1.646zm-4.369 0a1.647 1.647 0 11.002 3.294 1.647 1.647 0 01-.002-3.294zm-4.369 0a1.647 1.647 0 11.002 3.294 1.647 1.647 0 01-.002-3.294zm-6.29 40.089l4.525-3.437h7.954l-4.51 3.437H2.242zm11.432 0l4.525-3.437H45.8l4.525 3.437H13.674zm40.114 0l-4.51-3.437h7.954l4.526 3.437h-7.97z"/></svg>